<svg width="32" height="32" viewBox="0 0 32 32" xmlns="http://www.w3.org/2000/svg">
  <!-- Background -->
  <rect width="32" height="32" fill="#6200ee" rx="6"/>

  <!-- Simple apple icon -->
  <g transform="translate(6, 4)">
    <!-- Apple body -->
    <path d="M10 4 C14 4, 17 7, 17 12 C17 17, 14 20, 10 20 C6 20, 3 17, 3 12 C3 7, 6 4, 10 4 Z" fill="#ffffff"/>

    <!-- Apple bite -->
    <path d="M14 7 C15.5 7, 16.5 8, 16.5 9.5 C16.5 11, 15.5 12, 14 12 C12.5 12, 11.5 11, 11.5 9.5 C11.5 8, 12.5 7, 14 7 Z" fill="#6200ee"/>

    <!-- Apple stem -->
    <rect x="9.5" y="2" width="1" height="3" fill="#4caf50" rx="0.5"/>

    <!-- Apple leaf -->
    <ellipse cx="11.5" cy="3" rx="1.5" ry="1" fill="#4caf50" transform="rotate(30 11.5 3)"/>
  </g>
</svg>
